PathFileType	4	(X/Y/Z)	/Users/itak/Documents/Research/Walk-IL/dataset/trc/00563_00009.trc
DataRate	CameraRate	NumFrames	NumMarkers	Units	OrigDataRate	OrigDataStartFrame	OrigNumFrames
100.000000	100.000000	4	53	mm	100.000000	209	419
Frame#	Time	RPSI			LPSI			L3			STRN			T10			C7			CLAV			RBAK			LBAK			LSHO			LUPA			LAEL			LAOL			LWTS			LWPS			LFRA			LHPS			LHTS			RSHO			RUPA			RAEL			RAOL			RWTS			RWPS			RFRA			RIFD			RHTS			RHPS			RBHD			LFHD			RFHD			LBHD			LHIP			RHIP			RASI			LASI			LKNE			LTHI			LANK			LTIP			LTOE			LMT1			LMT5			LHEE			RKNE			RTHI			RANK			RTIP			RTOE			RMT1			RMT5			RHEE			LIFD			
		X1	Y1	Z1	X2	Y2	Z2	X3	Y3	Z3	X4	Y4	Z4	X5	Y5	Z5	X6	Y6	Z6	X7	Y7	Z7	X8	Y8	Z8	X9	Y9	Z9	X10	Y10	Z10	X11	Y11	Z11	X12	Y12	Z12	X13	Y13	Z13	X14	Y14	Z14	X15	Y15	Z15	X16	Y16	Z16	X17	Y17	Z17	X18	Y18	Z18	X19	Y19	Z19	X20	Y20	Z20	X21	Y21	Z21	X22	Y22	Z22	X23	Y23	Z23	X24	Y24	Z24	X25	Y25	Z25	X26	Y26	Z26	X27	Y27	Z27	X28	Y28	Z28	X29	Y29	Z29	X30	Y30	Z30	X31	Y31	Z31	X32	Y32	Z32	X33	Y33	Z33	X34	Y34	Z34	X35	Y35	Z35	X36	Y36	Z36	X37	Y37	Z37	X38	Y38	Z38	X39	Y39	Z39	X40	Y40	Z40	X41	Y41	Z41	X42	Y42	Z42	X43	Y43	Z43	X44	Y44	Z44	X45	Y45	Z45	X46	Y46	Z46	X47	Y47	Z47	X48	Y48	Z48	X49	Y49	Z49	X50	Y50	Z50	X51	Y51	Z51	X52	Y52	Z52	X53	Y53	Z53	

210	2.09	-51.12208557128906	938.1416625976562	109.1301345825195	1.142120480537415	946.9002685546875	-14.39823436737061	-5.913864135742188	1049.765502929688	51.00276565551758	248.3774871826172	1194.494506835938	166.8246612548828	15.85688304901123	1172.556762695312	57.99925231933594	100.4819030761719	1433.424926757812	116.166618347168	247.8955230712891	1307.304931640625	173.0271301269531	-16.6444263458252	1321.715209960938	154.3406066894531	102.0801162719727	1391.121337890625	11.23478031158447	229.7958831787109	1406.011596679688	-10.2977237701416	262.9597473144531	1292.166381835938	-98.22571563720703	325.0933227539062	1097.681396484375	-131.2632904052734	235.5643768310547	1046.052124023438	-138.8480682373047	468.8656616210938	1000.701965332031	47.95948028564453	503.8744201660156	946.8444213867188	-11.11286449432373	384.76171875	1049.979614257812	-96.11365509033203	542.7009887695312	922.5902099609375	27.4538459777832	538.1160888671875	972.7623291015625	73.97157287597656	84.57390594482422	1388.514404296875	277.5569458007812	26.59139251708984	1334.949096679688	326.4930114746094	-71.11111450195312	1067.776489257812	371.2809143066406	-116.2509460449219	1055.2783203125	329.2502136230469	68.00933074951172	853.2545166015625	383.3440246582031	1.814727544784546	830.2405395507812	425.7993469238281	-67.07231903076172	1011.633544921875	382.5430297851562	93.28929138183594	691.094970703125	402.4380493164062	98.16858673095703	772.1758422851562	422.3251037597656	27.19167709350586	762.6141357421875	443.1282653808594	188.6891937255859	1594.724853515625	234.88037109375	374.9157104492188	1584.006713867188	143.8746643066406	322.1078186035156	1581.593994140625	278.3846130371094	255.6182556152344	1594.244384765625	84.01142883300781	162.3413391113281	857.4986572265625	-85.26688385009766	23.78378105163574	877.2890014648438	270.67333984375	122.2180786132812	900.9896850585938	244.1175384521484	220.9669036865234	879.661865234375	-12.30702018737793	134.6591339111328	411.79296875	32.34942245483398	161.9026641845703	577.1286010742188	-21.57915115356445	-184.3219604492188	50.58876037597656	-31.10641098022461	-44.91268920898438	223.8918151855469	-9.90395450592041	-10.19668579101562	35.90164184570312	98.74730682373047	-87.60122680664062	45.49259948730469	105.165885925293	-68.35057067871094	33.87841415405273	-0.6614965200424194	-265.8759460449219	73.81314086914062	-7.288825511932373	282.3308410644531	533.1151123046875	369.1803588867188	111.7875442504883	767.0628051757812	317.986572265625	169.4609222412109	65.00303649902344	309.2042236328125	291.8160400390625	385.3148498535156	363.557861328125	376.5468139648438	81.51542663574219	372.1799011230469	342.5484619140625	71.22676849365234	306.404541015625	275.8287048339844	68.70555114746094	385.7588500976562	146.7583770751953	56.33318710327148	234.7522888183594	566.2119140625	902.5946655273438	131.5162811279297	
211	2.1	-29.14542770385742	940.7251586914062	118.6407470703125	22.08542633056641	949.9594116210938	-4.986769676208496	15.40171527862549	1052.0302734375	59.01180648803711	267.8083801269531	1198.409423828125	174.7916870117188	36.56292724609375	1174.654174804688	64.92825317382812	118.7468872070312	1436.139770507812	122.5079879760742	266.4298400878906	1311.197875976562	180.8866119384766	2.202689647674561	1323.89453125	159.6775970458984	121.1361618041992	1393.935424804688	17.46740913391113	248.8712615966797	1409.69580078125	-2.638152122497559	283.7481689453125	1296.08056640625	-89.89909362792969	347.3429260253906	1101.864013671875	-120.7184143066406	258.477294921875	1049.608276367188	-129.7777404785156	488.2037048339844	1008.818908691406	62.47891998291016	524.6780395507812	954.1570434570312	5.185107231140137	406.5762634277344	1055.261596679688	-83.77284240722656	563.259765625	931.2356567382812	44.88193893432617	557.388427734375	982.4663696289062	89.97751617431641	101.5676879882812	1391.800170898438	283.5843505859375	42.7714729309082	1338.755859375	331.9498596191406	-58.17207717895508	1072.584106445312	375.1388244628906	-102.7332229614258	1060.5576171875	332.2051696777344	78.73973083496094	856.7464599609375	390.4693298339844	11.51318073272705	834.282958984375	431.4114074707031	-54.93887710571289	1016.401672363281	386.5802001953125	102.1906204223633	694.3709716796875	409.6619567871094	107.3498001098633	775.2667846679688	429.9683532714844	35.9168586730957	766.3224487304688	449.1280517578125	206.1046752929688	1598.314697265625	241.7752075195312	392.3931579589844	1587.899291992188	150.8456726074219	339.5664367675781	1585.493041992188	285.39599609375	273.1480102539062	1597.882690429688	90.90017700195312	181.6319732666016	860.5313720703125	-78.17135620117188	47.15629196166992	880.2208862304688	279.1750183105469	145.4955749511719	903.400634765625	251.7304077148438	241.5781402587891	882.07080078125	-5.672492980957031	141.4120788574219	414.6447143554688	31.56206703186035	173.4726257324219	580.003173828125	-19.07180404663086	-182.3803863525391	55.59785079956055	-31.30937957763672	-40.84733963012695	229.0424499511719	-10.60488891601562	-10.5091438293457	35.97216033935547	98.68934631347656	-86.52283477783203	46.57792282104492	105.0162124633789	-67.90412902832031	33.90787887573242	-0.3705672919750214	-262.690185546875	82.38265228271484	-7.487472057342529	303.8543090820312	535.0291748046875	375.800048828125	134.5445861816406	770.2199096679688	325.92822265625	227.4188385009766	55.90843200683594	324.7909240722656	322.4521484375	387.2554931640625	373.0506896972656	433.5215454101562	84.46160888671875	387.6372985839844	399.9986572265625	73.44692993164062	321.9390563964844	334.0812683105469	64.27940368652344	401.0798645019531	204.8598937988281	47.55302429199219	250.2516632080078	585.53515625	914.16357421875	149.9059906005859	
212	2.11	-6.785451412200928	943.4098510742188	128.31103515625	43.45204162597656	953.2142333984375	4.646460056304932	37.28535461425781	1054.3271484375	67.27385711669922	287.5121765136719	1202.43994140625	182.8569030761719	57.59989166259766	1176.783081054688	71.98899841308594	137.2077331542969	1438.895874023438	129.0169982910156	285.1699829101562	1315.188354492188	188.8396759033203	21.32235908508301	1326.09912109375	165.1796417236328	140.311767578125	1396.817016601562	23.91812324523926	268.0151672363281	1413.407958984375	5.116627216339111	304.3525085449219	1300.051879882812	-81.56482696533203	368.8668823242188	1105.992919921875	-110.4064788818359	280.5663452148438	1053.3359375	-120.7833938598633	506.7869873046875	1016.468322753906	76.37760925292969	544.4473266601562	960.956787109375	20.8304328918457	427.5672607421875	1060.34619140625	-71.804931640625	582.7735595703125	939.2832641601562	61.55214309692383	575.859619140625	991.5542602539062	105.1701049804688	118.8221817016602	1395.136352539062	289.7584228515625	59.19050979614258	1342.65478515625	337.5169982910156	-44.9827880859375	1077.477416992188	378.8383483886719	-88.85584259033203	1065.861938476562	334.9582214355469	89.85050201416016	860.5234375	397.6418762207031	21.56697654724121	838.4849243164062	436.8548889160156	-42.50915908813477	1021.262512207031	390.425537109375	111.6772918701172	697.9857177734375	416.8617553710938	116.914306640625	778.6935424804688	437.6788940429688	45.04341506958008	770.2343139648438	454.9742126464844	223.5923461914062	1601.934326171875	248.7196197509766	409.9508972167969	1591.899780273438	157.8298797607422	357.1134948730469	1589.511108398438	292.4360656738281	290.7357482910156	1601.549194335938	97.82096099853516	201.3008880615234	863.8623657226562	-70.86370086669922	70.84333801269531	882.9503784179688	287.7058410644531	169.08251953125	905.8018188476562	259.4865417480469	262.5657348632812	884.731689453125	1.151251554489136	149.2148590087891	418.0713806152344	30.79498863220215	185.781005859375	583.3793334960938	-16.57114219665527	-179.82568359375	61.38286590576172	-31.51991271972656	-35.82056427001953	234.9361419677734	-11.27920818328857	-10.91711330413818	35.99955749511719	98.64872741699219	-85.2398681640625	47.91400146484375	104.8804626464844	-67.28851318359375	34.02415466308594	-0.04134952649474144	-258.4744873046875	92.08653259277344	-7.62015962600708	324.6196899414062	535.623291015625	381.9005432128906	157.2459869384766	772.616455078125	333.8358459472656	284.4659423828125	48.29644775390625	339.7566833496094	352.0082702636719	388.66064453125	381.9618835449219	489.0706787109375	87.23983001708984	402.5653381347656	455.930908203125	76.26374816894531	336.9599609375	391.30615234375	60.13019943237305	415.6946716308594	261.9651184082031	40.89463806152344	265.1275329589844	603.85546875	925.0653686523438	167.4038696289062	
213	2.12	15.90636920928955	946.0723876953125	138.1253662109375	65.19712829589844	956.5489501953125	14.48067283630371	59.66015243530273	1056.54345703125	75.8153076171875	307.4590759277344	1206.463623046875	191.0109405517578	78.89138793945312	1178.833251953125	79.21682739257812	155.8386688232422	1441.572998046875	135.6977386474609	304.0946350097656	1319.155883789062	196.8709259033203	40.69819259643555	1328.2216796875	170.8949127197266	159.5634765625	1399.631713867188	30.5953311920166	287.1821594238281	1416.994384765625	12.94184112548828	324.7184753417969	1303.905395507812	-73.25104522705078	389.6811218261719	1109.897094726562	-100.3359603881836	301.8423767089844	1057.0322265625	-111.8722915649414	524.6928100585938	1023.46875	89.66112518310547	563.3204956054688	967.1163330078125	35.77072143554688	447.7792053222656	1065.07421875	-60.22980117797852	601.3685913085938	946.5702514648438	77.42005920410156	593.609619140625	999.8155517578125	119.5876846313477	136.3422393798828	1398.425170898438	296.0981140136719	75.87284088134766	1346.541259765625	343.232666015625	-31.43684005737305	1082.31103515625	382.4444274902344	-74.51721954345703	1071.057250976562	337.5806884765625	101.4001159667969	864.4048461914062	404.9066772460938	32.03517532348633	842.6845092773438	442.1864624023438	-29.68761825561523	1026.073120117188	394.1446838378906	121.7518539428711	701.7413330078125	424.0952453613281	126.8973236083984	782.2688598632812	445.5055847167969	54.6076545715332	774.1849365234375	460.7299499511719	241.1527557373047	1605.4560546875	255.7186889648438	427.5804748535156	1595.859375	164.8217926025391	374.7490539550781	1593.494262695312	299.5014953613281	308.3685607910156	1605.118408203125	104.7806015014648	221.3406829833984	867.3812255859375	-63.35722732543945	94.80770111083984	885.3560791015625	296.2642211914062	192.9168701171875	908.0955810546875	267.3587341308594	283.8948059082031	887.5484008789062	8.15378475189209	158.3252105712891	421.8470153808594	30.21444320678711	199.0004425048828	587.075927734375	-13.96700859069824	-176.4966583251953	67.93564605712891	-31.77168083190918	-29.60127067565918	241.4270477294922	-11.85771942138672	-11.41948318481445	35.95489501953125	98.62647247314453	-83.73030853271484	49.52838897705078	104.7329025268555	-66.44364929199219	34.27179336547852	0.2848412692546844	-253.023681640625	102.8745498657227	-7.744743347167969	344.8642272949219	534.9813842773438	387.5411071777344	179.9106597900391	774.1561279296875	341.7173461914062	339.8244323730469	42.15814971923828	353.851806640625	380.5309448242188	389.508544921875	390.2621765136719	542.6714477539062	89.69756317138672	416.7613830566406	509.7520751953125	79.50927734375	351.2726745605469	446.8138732910156	56.28078460693359	429.3644409179688	317.2861328125	36.26810073852539	279.1442565917969	621.2636108398438	935.0162963867188	183.9655456542969	
